<?xml version="1.0" encoding="utf-8"?>
<!-- Generator: Adobe Illustrator 25.4.1, SVG Export Plug-In . SVG Version: 6.00 Build 0)  -->
<svg version="1.1" id="Layer_1" xmlns="http://www.w3.org/2000/svg" xmlns:xlink="http://www.w3.org/1999/xlink" x="0px" y="0px"
	 viewBox="0 0 2000 2000" style="enable-background:new 0 0 2000 2000;" xml:space="preserve">
<style type="text/css">
	.st0{opacity:0.4;fill:#BCC3A7;}
	.st1{fill:#FFFFFF;}
</style>
<g>
	<path class="st0" d="M997.64,612.6c-29.46,0.24-194.57-3.8-248.73,159.41c-54.17,163.21,86.24,248.73,114.03,295.06
		c27.8,46.33,90.51,42.76,134.7,37.77c44.19-4.99,42.76-9.98,102.63-17.1c59.87-7.13,88.38-21.38,111.18-58.44
		c22.81-37.06,33.5-58.44,34.21-91.23c0-19.96,9.27-25.66,9.27-50.6s-29.22-46.33-37.06-99.78c-7.84-53.45-27.08-56.3-42.05-99.07
		c-14.97-42.76-26.37-62.01-84.1-67.71C1033.99,615.21,1013.38,612.47,997.64,612.6z"/>
	<path class="st1" d="M990.51,859.44c2.38-29.51,9.6-58.68,21.98-85.33c5.93-13.44,13.36-26.14,21.61-38.15
		c8.42-11.89,17.61-23.29,28.57-32.79c-7.72,12.19-14.57,24.64-20.55,37.46c-6.12,12.72-11.41,25.74-15.89,38.95
		c-9.02,26.42-14.57,53.7-16.75,81.21c-2.34,29.51-9.58,58.69-21.95,85.34c-5.94,13.44-13.36,26.14-21.6,38.16
		c-8.44,11.88-17.63,23.28-28.6,32.77c7.71-12.19,14.55-24.64,20.52-37.47c6.12-12.72,11.41-25.74,15.9-38.95
		C982.77,914.21,988.31,886.94,990.51,859.44"/>
	<path class="st1" d="M990.51,859.44c2.38-29.51,9.6-58.68,21.98-85.33c5.93-13.44,13.36-26.14,21.61-38.15
		c8.42-11.89,17.61-23.29,28.57-32.79c-7.72,12.19-14.57,24.64-20.55,37.46c-6.12,12.72-11.41,25.74-15.89,38.95
		c-9.02,26.42-14.57,53.7-16.75,81.21c-2.34,29.51-9.58,58.69-21.95,85.34c-5.94,13.44-13.36,26.14-21.6,38.16
		c-8.44,11.88-17.63,23.28-28.6,32.77c7.71-12.19,14.55-24.64,20.52-37.47c6.12-12.72,11.41-25.74,15.9-38.95
		C982.77,914.21,988.31,886.94,990.51,859.44"/>
	<path class="st1" d="M629.67,733.37c-16.04,28.17-26.32,59.62-30.08,91.86c-3.81,32.24-1.15,65.26,7.87,96.52
		c17.9,62.72,62.27,117.18,120.04,147.78c28.79,15.4,60.77,24.89,93.32,27.58c32.55,2.75,65.61-1.04,96.67-11.13
		c31.07-10.04,60.07-26.44,84.72-47.84c12.36-10.6,23.8-22.51,33.69-35.58c9.85-13.08,18.17-27.17,25.35-41.71
		c28.57-58.51,36.15-123.85,40.27-185.31l1.16-11.11c0.37-3.71,1.41-7.26,2.07-10.9l2.26-10.85l3.39-10.47
		c1.88-7.15,5.37-13.55,8.22-20.24c1.5-3.32,3.61-6.27,5.37-9.44l2.76-4.68c0.98-1.52,2.14-2.9,3.2-4.34
		c8.32-11.81,18.82-21.95,30.76-30.01c2.94-2.09,6.14-3.77,9.19-5.69c3.18-1.67,6.39-3.32,9.66-4.8c3.32-1.39,6.63-2.81,10.03-3.89
		c1.38-0.48,2.84-0.93,4.28-1.33c23.77,3.76,46.95,11.22,68.3,22.43c52.75,27.38,93.81,76.8,110.64,134.04
		c8.5,28.56,11.2,58.86,7.94,88.52c-3.23,29.67-12.44,58.68-27.01,84.76c-14.56,26.07-34.39,49.23-57.82,67.9
		c-2.96,2.29-5.84,4.7-8.85,6.92l-9.39,6.19c-6.1,4.41-12.95,7.53-19.45,11.31c-3.21,1.97-6.76,3.27-10.14,4.87
		c-3.44,1.54-6.84,3.15-10.31,4.61l-10.64,3.77c-3.54,1.29-7.08,2.58-10.77,3.43c-28.98,8.24-59.7,11.41-90.11,8.24
		c-30.4-3.2-60.37-12.08-88.28-26.12c25.79,17.63,55.71,29.64,86.99,35.33c3.88,0.96,7.87,1.1,11.81,1.69
		c3.96,0.42,7.91,1.07,11.89,1.32l11.96,0.44l5.99,0.19l5.99-0.28l11.99-0.59c4-0.25,7.95-0.96,11.93-1.42
		c3.96-0.62,8.01-0.83,11.91-1.79l11.76-2.61c62.84-14.71,118.27-57.68,150.12-114.09c16.03-28.18,26.31-59.62,30.08-91.86
		c3.81-32.24,1.15-65.27-7.88-96.53c-17.89-62.71-62.27-117.18-120.03-147.77c-28.8-15.4-60.77-24.89-93.32-27.58
		c-32.55-2.75-65.61,1.04-96.67,11.13c-31.07,10.05-60.07,26.45-84.72,47.84c-12.37,10.61-23.81,22.51-33.69,35.58
		c-9.86,13.1-18.18,27.19-25.36,41.72c-28.57,58.5-36.15,123.85-40.27,185.31l-1.16,11.11c-0.38,3.71-1.42,7.26-2.08,10.9
		l-2.26,10.85l-3.38,10.46c-1.89,7.15-5.38,13.55-8.23,20.25c-1.5,3.32-3.61,6.27-5.37,9.43l-2.75,4.68
		c-0.98,1.52-2.15,2.89-3.21,4.34c-8.31,11.8-18.82,21.94-30.75,30.01c-2.94,2.09-6.14,3.77-9.19,5.69
		c-3.18,1.67-6.39,3.32-9.67,4.8c-3.32,1.39-6.63,2.81-10.03,3.88c-1.38,0.49-2.84,0.93-4.29,1.33
		c-23.77-3.75-46.95-11.22-68.3-22.43c-52.75-27.39-93.82-76.81-110.65-134.04c-8.49-28.57-11.2-58.86-7.94-88.53
		c3.22-29.67,12.43-58.68,27-84.75c14.56-26.07,34.39-49.23,57.82-67.9c2.96-2.3,5.84-4.7,8.86-6.92l9.38-6.19
		c6.1-4.4,12.95-7.53,19.45-11.3c3.22-1.97,6.76-3.28,10.15-4.89c3.43-1.52,6.84-3.14,10.3-4.6l10.64-3.77
		c3.54-1.28,7.1-2.57,10.77-3.42c28.99-8.25,59.7-11.41,90.12-8.24c30.39,3.19,60.37,12.08,88.27,26.12
		c-25.78-17.64-55.71-29.64-86.99-35.34c-3.88-0.95-7.87-1.1-11.81-1.69c-3.95-0.44-7.91-1.08-11.88-1.33l-11.96-0.44l-6-0.19
		l-5.98,0.28l-12,0.59c-4,0.26-7.94,0.97-11.93,1.42c-3.96,0.61-8,0.83-11.9,1.78l-11.77,2.62
		C716.96,633.99,661.52,676.95,629.67,733.37 M847.04,1075.2c1.08-0.64,2.16-1.27,3.2-1.97c14.02-9.12,26.54-20.78,36.28-34.38
		c1.25-1.68,2.6-3.28,3.76-5.02l3.25-5.34c2.07-3.61,4.5-7.06,6.26-10.82c3.39-7.56,7.35-14.95,9.59-22.89l3.88-11.74l2.64-12
		c0.78-4,1.92-7.99,2.4-12.03l1.39-12.11c0.43-4,0.99-8.17,1.3-12.03l0.89-11.49c0.57-7.67,1.48-15.29,2.25-22.92
		c1.88-15.2,4.03-30.35,7.08-45.28c6.05-29.8,14.52-59.08,27.71-85.92c6.63-13.37,14.22-26.22,23.12-38.03
		c8.96-11.8,19.19-22.42,30.49-32.1c22.41-19.42,48.71-34.27,76.92-43.38c20.49-6.69,41.95-10.22,63.5-10.72
		c-1.08,0.64-2.15,1.26-3.19,1.97c-14.03,9.12-26.55,20.77-36.29,34.37c-1.24,1.68-2.6,3.29-3.76,5.02l-3.24,5.35
		c-2.08,3.61-4.5,7.06-6.27,10.81c-3.38,7.56-7.35,14.95-9.58,22.89l-3.89,11.75l-2.64,12c-0.79,4.01-1.93,7.99-2.41,12.03
		l-1.39,12.12c-0.42,3.99-0.98,8.17-1.3,12.03l-0.89,11.49c-0.57,7.67-1.47,15.28-2.25,22.92c-1.88,15.2-4.03,30.35-7.07,45.27
		c-6.06,29.81-14.52,59.08-27.72,85.93c-6.62,13.36-14.21,26.21-23.12,38.02c-8.95,11.8-19.18,22.42-30.49,32.11
		c-22.41,19.42-48.7,34.27-76.92,43.38C890.05,1071.16,868.59,1074.7,847.04,1075.2"/>
	<g>
		<path class="st1" d="M424.6,1251.58c-3.64-1.6-8.51-3.47-14.49-5.55c1.8-0.58,3.57-1.28,5.29-2.09
			c5.58-2.64,10.11-6.58,13.49-11.72c3.4-5.17,5.12-11.34,5.12-18.34c0-6.89-1.87-13.08-5.56-18.4c-3.65-5.25-8.58-9.35-14.68-12.17
			c-5.99-2.78-12.64-4.26-19.78-4.41H344.1v6.9h2.94c2.27,0,3.92,0.56,5.03,1.72c1.14,1.19,1.7,2.69,1.7,4.61v120.49
			c0,1.92-0.55,3.42-1.7,4.61c-1.11,1.16-2.76,1.72-5.03,1.72h-2.94v6.9h48.26l0.96,0c15.97,0,28.81-3.41,38.16-10.13
			c9.84-7.07,14.83-17.6,14.83-31.31c0-8.71-2.15-15.8-6.39-21.09C435.8,1258.19,430.65,1254.24,424.6,1251.58z M412.47,1233.16
			c-4.87,4.02-10.32,5.98-16.66,5.98c-4.72,0-9.26-1.17-13.51-3.47c-4.19-2.27-7.63-5.73-10.23-10.26
			c-2.62-4.56-3.94-10.2-3.94-16.77v-16.52c0-2.11,0.71-2.88,1.24-3.29c1.07-0.8,2.97-1.22,5.49-1.22h14.51
			c9.96,0,17.82,2.44,23.36,7.24c5.49,4.77,8.15,10.73,8.15,18.23c0,1.78-0.09,2.7-0.17,3.17l-0.02,0.17
			C419.95,1223.72,417.27,1229.2,412.47,1233.16z M368.13,1234.93c1.25,1.5,2.63,2.9,4.12,4.16c4.25,3.6,9.18,6.17,14.59,7.61
			l8.02,3.01c8.84,3.04,15.82,5.86,20.77,8.4c4.68,2.4,8.64,5.74,11.78,9.93c3.02,4.03,4.55,9.46,4.55,16.17
			c0,21.13-12.96,31.9-39.62,32.92h-17.48c-2.52,0-4.42-0.42-5.49-1.22c-0.53-0.4-1.24-1.17-1.24-3.29V1234.93z"/>
		<path class="st1" d="M631.59,1317.47c-1.21-0.98-2.16-2.9-2.8-5.7l-29.24-132.48l-0.09-0.39h-22.64v6.9h2.94
			c1.6,0,2.93,0.3,3.94,0.9c0.71,0.42,1.29,0.89,1.76,1.43l-27.73,125.26c-0.48,2.22-1.28,3.78-2.24,4.39
			c-0.67,0.43-2.46,1.15-6.97,1.15h-2.94v6.9h29.46v-6.9h-2.94c-3.21,0-4.73-0.46-5.44-0.85c-0.46-0.25-0.68-0.5-0.68-1.24
			c0-0.67,0.06-0.91,0.06-0.93l12.85-57.78h23.08l12.79,57.36l0.06,0.23c0,0,0.06,0.25,0.06,0.92c0,0.86,0,2.29-4.51,2.29h-2.94v6.9
			h32.49v-6.9h-2.94C634.61,1318.93,632.79,1318.43,631.59,1317.47z M600.08,1249.41h-19.27l9.63-43.79L600.08,1249.41z"/>
		<path class="st1" d="M821.84,1306.3c-1.51,3.9-3.01,6.85-4.45,8.77c-1.06,1.41-2.26,2.04-3.89,2.04h-40.9
			c-2.52,0-4.42-0.42-5.49-1.22c-0.53-0.4-1.24-1.17-1.24-3.29v-120.49c0-2.05,0.56-3.62,1.7-4.81c1.11-1.15,2.76-1.72,5.03-1.72
			h2.94v-6.7h-33.7v6.9h2.94c2.27,0,3.92,0.56,5.03,1.72c1.14,1.19,1.7,2.69,1.7,4.61v120.49c0,1.92-0.55,3.42-1.7,4.61
			c-1.11,1.16-2.76,1.72-5.03,1.72h-2.94v6.9h69.44c3.2,0,4.7,0.29,5.34,0.47l0.31,1.54h5.6l7.25-23.42h-7.23L821.84,1306.3z"/>
		<path class="st1" d="M1015.63,1317.47L1015.63,1317.47c-1.21-0.98-2.16-2.9-2.8-5.7l-29.24-132.48l-0.09-0.39h-22.64v6.9h2.94
			c1.6,0,2.93,0.3,3.94,0.9c0.71,0.42,1.29,0.89,1.77,1.43l-27.73,125.26c-0.49,2.25-1.26,3.77-2.24,4.39
			c-0.67,0.43-2.46,1.15-6.97,1.15h-2.94v6.9h29.46v-6.9h-2.94c-3.21,0-4.73-0.46-5.44-0.85c-0.46-0.25-0.68-0.5-0.68-1.24
			c0-0.67,0.06-0.91,0.06-0.93l12.85-57.78h23.08l12.79,57.36l0.06,0.23c0,0,0.06,0.25,0.06,0.92c0,0.86,0,2.29-4.51,2.29h-2.94v6.9
			h32.49v-6.9h-2.94C1018.64,1318.93,1016.83,1318.43,1015.63,1317.47z M984.12,1249.41h-19.27l9.64-43.79L984.12,1249.41z"/>
		<path class="st1" d="M1186.73,1185.79h2.94c2.27,0,3.92,0.56,5.03,1.72c1.14,1.19,1.7,2.69,1.7,4.61v85.08l-50.21-98.3h-20.32v6.9
			h2.94c2.27,0,3.92,0.56,5.03,1.72c1.14,1.19,1.7,2.69,1.7,4.61v120.49c0,1.92-0.55,3.42-1.7,4.61c-1.11,1.16-2.76,1.72-5.03,1.72
			h-2.94v6.9h28.05v-6.69h-2.94c-2.25,0-3.89-0.58-4.99-1.78c-1.17-1.26-1.73-2.81-1.73-4.75v-104.02l60.85,120.86v-137.33
			c0-2.05,0.55-3.62,1.7-4.81c1.11-1.15,2.75-1.72,5.03-1.72h2.94v-6.7h-28.05V1185.79z"/>
		<path class="st1" d="M1447.57,1300.4c-13.21,12.56-29.88,18.93-49.55,18.93c-2.32,0-4.11-0.06-5.47-0.2
			c-11.16-0.64-21.56-3.79-30.9-9.36c-9.33-5.56-16.81-13.07-22.24-22.33c-5.41-9.23-8.16-19.61-8.16-30.85
			c0-13.5,3.28-25.8,9.75-36.56c6.48-10.79,15.14-19.28,25.72-25.25c10.58-5.96,21.92-8.99,33.71-8.99c8.39,0,17.01,1.38,25.61,4.09
			c8.51,2.69,15.93,6.7,22.04,11.92l0.83,0.71h5.04v-23.62h-7.1v2.95c0,1.46-0.3,3.26-0.89,5.33c-0.09,0.32-0.18,0.6-0.26,0.84
			c-8.26-3.91-16.08-6.74-23.24-8.44c-7.59-1.79-16.09-2.7-25.26-2.7c-14.94,0-28.64,3.38-40.71,10.04
			c-12.09,6.67-21.71,15.87-28.6,27.36c-6.9,11.5-10.39,24.31-10.39,38.09c0,13.78,3.5,26.59,10.39,38.08
			c6.89,11.48,16.51,20.69,28.6,27.36c12.07,6.66,25.77,10.04,40.71,10.04c11.06,0,21.52-1.9,31.1-5.64
			c9.57-3.74,18.08-9.02,25.31-15.69l2.37-2.19l-6.44-5.79L1447.57,1300.4z"/>
		<path class="st1" d="M1648.67,1304.42l-0.73,1.88c-1.51,3.9-3.01,6.85-4.45,8.77c-1.06,1.41-2.26,2.04-3.89,2.04h-40.9
			c-2.52,0-4.42-0.42-5.49-1.22c-0.53-0.4-1.24-1.17-1.24-3.29v-59.11h27.28c1.3,0,2.19,0.51,2.99,1.71
			c1.14,1.72,2.23,4.66,3.22,8.74l0.55,2.25h7.47l-8.28-34.1h-7.5l0.91,3.66c0.74,2.98,1.12,5.38,1.12,7.14
			c0,1.89-0.4,1.89-1.29,1.89h-26.47v-52.67c0-2.11,0.71-2.88,1.24-3.29c1.07-0.8,2.97-1.22,5.49-1.22h36.87
			c1.63,0,2.83,0.63,3.89,2.05c1.44,1.93,2.94,4.88,4.45,8.76l0.73,1.88h7.22l-7.27-23.42H1639l-0.31,1.54
			c-0.65,0.19-2.15,0.47-5.34,0.47h-65.41v6.9h2.94c2.27,0,3.92,0.56,5.03,1.72c1.14,1.19,1.7,2.69,1.7,4.61v120.49
			c0,1.92-0.55,3.42-1.7,4.61c-1.11,1.16-2.76,1.72-5.03,1.72h-2.94v6.9h69.44c3.2,0,4.7,0.29,5.34,0.47l0.31,1.54h5.6l7.25-23.42
			H1648.67z"/>
	</g>
	<g>
		<path class="st1" d="M593.95,1387.15l-4.94-7.03c-0.61,0.04-1.09,0.07-1.44,0.07h-5.65v6.96h-3.27v-22.88h8.92
			c2.96,0,5.29,0.71,6.99,2.12c1.7,1.42,2.55,3.37,2.55,5.85c0,1.77-0.44,3.27-1.31,4.51c-0.87,1.24-2.11,2.15-3.73,2.71l5.43,7.68
			H593.95z M592.21,1376.07c1.09-0.89,1.63-2.17,1.63-3.82s-0.55-2.92-1.63-3.81c-1.09-0.88-2.67-1.32-4.74-1.32h-5.56v10.3h5.56
			C589.54,1377.41,591.12,1376.96,592.21,1376.07z"/>
		<path class="st1" d="M639.28,1384.3v2.84h-16.6v-22.88h16.15v2.84h-12.88v7.03h11.47v2.78h-11.47v7.39H639.28z"/>
		<path class="st1" d="M680.6,1375.58h3.14v8.92c-1.13,0.94-2.45,1.66-3.96,2.16c-1.5,0.5-3.07,0.75-4.71,0.75
			c-2.31,0-4.39-0.51-6.24-1.52c-1.85-1.01-3.31-2.41-4.36-4.18s-1.59-3.77-1.59-6c0-2.22,0.53-4.23,1.59-6.02
			c1.06-1.79,2.52-3.18,4.38-4.18c1.86-1,3.96-1.5,6.29-1.5c1.83,0,3.49,0.3,4.98,0.9c1.49,0.6,2.76,1.48,3.81,2.63l-2.03,2.03
			c-1.83-1.76-4.04-2.65-6.63-2.65c-1.74,0-3.31,0.38-4.69,1.13c-1.38,0.75-2.47,1.8-3.25,3.14c-0.78,1.34-1.18,2.85-1.18,4.53
			c0,1.66,0.39,3.15,1.18,4.49c0.78,1.34,1.87,2.39,3.25,3.15c1.38,0.76,2.94,1.14,4.66,1.14c2.05,0,3.83-0.49,5.36-1.47V1375.58z"
			/>
		<path class="st1" d="M726.85,1384.3v2.84h-16.6v-22.88h16.15v2.84h-12.88v7.03h11.47v2.78h-11.47v7.39H726.85z"/>
		<path class="st1" d="M772.08,1364.27v22.88h-2.68l-13.73-17.06v17.06h-3.27v-22.88h2.68l13.73,17.06v-17.06H772.08z"/>
		<path class="st1" d="M815.82,1384.3v2.84h-16.6v-22.88h16.15v2.84h-12.88v7.03h11.47v2.78h-11.47v7.39H815.82z"/>
		<path class="st1" d="M856.67,1387.15l-4.94-7.03c-0.61,0.04-1.09,0.07-1.44,0.07h-5.65v6.96h-3.27v-22.88h8.92
			c2.96,0,5.29,0.71,6.99,2.12c1.7,1.42,2.55,3.37,2.55,5.85c0,1.77-0.44,3.27-1.31,4.51c-0.87,1.24-2.11,2.15-3.73,2.71l5.43,7.68
			H856.67z M854.94,1376.07c1.09-0.89,1.63-2.17,1.63-3.82s-0.54-2.92-1.63-3.81c-1.09-0.88-2.67-1.32-4.74-1.32h-5.56v10.3h5.56
			C852.27,1377.41,853.85,1376.96,854.94,1376.07z"/>
		<path class="st1" d="M899.98,1381.43h-12.16l-2.52,5.72h-3.37l10.36-22.88h3.24l10.39,22.88h-3.43L899.98,1381.43z
			 M898.84,1378.81l-4.93-11.21l-4.94,11.21H898.84z"/>
		<path class="st1" d="M932.99,1367.11h-7.84v-2.84h18.93v2.84h-7.84v20.04h-3.24V1367.11z"/>
		<path class="st1" d="M967.9,1364.27h3.27v22.88h-3.27V1364.27z"/>
		<path class="st1" d="M1017.94,1364.27l-10.03,22.88h-3.24l-10.07-22.88h3.53l8.24,18.79l8.3-18.79H1017.94z"/>
		<path class="st1" d="M1057.72,1384.3v2.84h-16.6v-22.88h16.15v2.84h-12.88v7.03h11.47v2.78h-11.47v7.39H1057.72z"/>
		<path class="st1" d="M1133.56,1387.15l-0.03-16.67l-8.27,13.89h-1.5l-8.27-13.79v16.57h-3.14v-22.88h2.68l9.54,16.08l9.41-16.08
			h2.68l0.03,22.88H1133.56z"/>
		<path class="st1" d="M1180.43,1384.3v2.84h-16.6v-22.88h16.15v2.84h-12.88v7.03h11.47v2.78h-11.47v7.39H1180.43z"/>
		<path class="st1" d="M1205.99,1364.27h9.64c2.42,0,4.56,0.48,6.44,1.44c1.87,0.96,3.33,2.3,4.36,4.04
			c1.04,1.73,1.55,3.72,1.55,5.97c0,2.24-0.52,4.23-1.55,5.96c-1.03,1.73-2.49,3.08-4.36,4.04c-1.87,0.96-4.02,1.44-6.44,1.44h-9.64
			V1364.27z M1215.43,1384.3c1.85,0,3.48-0.36,4.89-1.08c1.41-0.72,2.49-1.73,3.25-3.02c0.76-1.3,1.14-2.8,1.14-4.49
			c0-1.7-0.38-3.2-1.14-4.5c-0.76-1.3-1.85-2.3-3.25-3.02c-1.41-0.72-3.03-1.08-4.89-1.08h-6.18v17.19H1215.43z"/>
		<path class="st1" d="M1253.25,1364.27h3.27v22.88h-3.27V1364.27z"/>
		<path class="st1" d="M1287.68,1385.89c-1.84-1.01-3.29-2.41-4.33-4.18c-1.05-1.78-1.57-3.77-1.57-6c0-2.22,0.52-4.22,1.57-6
			c1.05-1.78,2.49-3.17,4.35-4.18c1.85-1.01,3.92-1.52,6.21-1.52c1.79,0,3.42,0.3,4.9,0.9c1.48,0.6,2.75,1.49,3.79,2.66l-2.12,2.06
			c-1.72-1.81-3.87-2.71-6.44-2.71c-1.7,0-3.24,0.38-4.61,1.14c-1.37,0.76-2.45,1.81-3.22,3.15c-0.77,1.34-1.16,2.84-1.16,4.5
			c0,1.66,0.39,3.15,1.16,4.49s1.85,2.39,3.22,3.15c1.37,0.76,2.91,1.14,4.61,1.14c2.55,0,4.7-0.91,6.44-2.74l2.12,2.06
			c-1.05,1.18-2.32,2.07-3.81,2.68c-1.49,0.61-3.13,0.92-4.92,0.92C1291.59,1387.41,1289.52,1386.9,1287.68,1385.89z"/>
		<path class="st1" d="M1327.54,1364.27h3.27v22.88h-3.27V1364.27z"/>
		<path class="st1" d="M1377.62,1364.27v22.88h-2.68l-13.73-17.06v17.06h-3.27v-22.88h2.68l13.73,17.06v-17.06H1377.62z"/>
		<path class="st1" d="M1421.35,1384.3v2.84h-16.6v-22.88h16.15v2.84h-12.88v7.03h11.47v2.78h-11.47v7.39H1421.35z"/>
	</g>
</g>
</svg>
