<?xml version="1.0" encoding="utf-8"?>
<!-- Generator: Adobe Illustrator 23.0.3, SVG Export Plug-In . SVG Version: 6.00 Build 0)  -->
<svg version="1.1" id="Layer_1" xmlns="http://www.w3.org/2000/svg" xmlns:xlink="http://www.w3.org/1999/xlink" x="0px" y="0px"
	 viewBox="0 0 2000 2000" style="enable-background:new 0 0 2000 2000;" xml:space="preserve">
<style type="text/css">
	.st0{opacity:0.4;fill:#DCE0BD;}
	.st1{fill:#231F20;}
</style>
<g>
	<path class="st0" d="M997.6,612.6c-29.5,0.2-194.6-3.8-248.7,159.4c-54.2,163.2,86.2,248.7,114,295.1
		c27.8,46.3,90.5,42.8,134.7,37.8c44.2-5,42.8-10,102.6-17.1c59.9-7.1,88.4-21.4,111.2-58.4c22.8-37.1,33.5-58.4,34.2-91.2
		c0-20,9.3-25.7,9.3-50.6s-29.2-46.3-37.1-99.8c-7.8-53.5-27.1-56.3-42-99.1c-15-42.8-26.4-62-84.1-67.7
		C1034,615.2,1013.4,612.5,997.6,612.6z"/>
	<path class="st1" d="M990.5,859.4c2.4-29.5,9.6-58.7,22-85.3c5.9-13.4,13.4-26.1,21.6-38.1c8.4-11.9,17.6-23.3,28.6-32.8
		c-7.7,12.2-14.6,24.6-20.5,37.5c-6.1,12.7-11.4,25.7-15.9,39c-9,26.4-14.6,53.7-16.8,81.2c-2.3,29.5-9.6,58.7-22,85.3
		c-5.9,13.4-13.4,26.1-21.6,38.2c-8.4,11.9-17.6,23.3-28.6,32.8c7.7-12.2,14.6-24.6,20.5-37.5c6.1-12.7,11.4-25.7,15.9-39
		C982.8,914.2,988.3,886.9,990.5,859.4"/>
	<path class="st1" d="M990.5,859.4c2.4-29.5,9.6-58.7,22-85.3c5.9-13.4,13.4-26.1,21.6-38.1c8.4-11.9,17.6-23.3,28.6-32.8
		c-7.7,12.2-14.6,24.6-20.5,37.5c-6.1,12.7-11.4,25.7-15.9,39c-9,26.4-14.6,53.7-16.8,81.2c-2.3,29.5-9.6,58.7-22,85.3
		c-5.9,13.4-13.4,26.1-21.6,38.2c-8.4,11.9-17.6,23.3-28.6,32.8c7.7-12.2,14.6-24.6,20.5-37.5c6.1-12.7,11.4-25.7,15.9-39
		C982.8,914.2,988.3,886.9,990.5,859.4"/>
	<path class="st1" d="M629.7,733.4c-16,28.2-26.3,59.6-30.1,91.9c-3.8,32.2-1.1,65.3,7.9,96.5c17.9,62.7,62.3,117.2,120,147.8
		c28.8,15.4,60.8,24.9,93.3,27.6c32.5,2.7,65.6-1,96.7-11.1c31.1-10,60.1-26.4,84.7-47.8c12.4-10.6,23.8-22.5,33.7-35.6
		c9.9-13.1,18.2-27.2,25.4-41.7c28.6-58.5,36.2-123.9,40.3-185.3l1.2-11.1c0.4-3.7,1.4-7.3,2.1-10.9l2.3-10.8l3.4-10.5
		c1.9-7.1,5.4-13.5,8.2-20.2c1.5-3.3,3.6-6.3,5.4-9.4l2.8-4.7c1-1.5,2.1-2.9,3.2-4.3c8.3-11.8,18.8-22,30.8-30
		c2.9-2.1,6.1-3.8,9.2-5.7c3.2-1.7,6.4-3.3,9.7-4.8c3.3-1.4,6.6-2.8,10-3.9c1.4-0.5,2.8-0.9,4.3-1.3c23.8,3.8,47,11.2,68.3,22.4
		c52.7,27.4,93.8,76.8,110.6,134c8.5,28.6,11.2,58.9,7.9,88.5c-3.2,29.7-12.4,58.7-27,84.8c-14.6,26.1-34.4,49.2-57.8,67.9
		c-3,2.3-5.8,4.7-8.9,6.9l-9.4,6.2c-6.1,4.4-13,7.5-19.4,11.3c-3.2,2-6.8,3.3-10.1,4.9c-3.4,1.5-6.8,3.1-10.3,4.6l-10.6,3.8
		c-3.5,1.3-7.1,2.6-10.8,3.4c-29,8.2-59.7,11.4-90.1,8.2c-30.4-3.2-60.4-12.1-88.3-26.1c25.8,17.6,55.7,29.6,87,35.3
		c3.9,1,7.9,1.1,11.8,1.7c4,0.4,7.9,1.1,11.9,1.3l12,0.4l6,0.2l6-0.3l12-0.6c4-0.3,8-1,11.9-1.4c4-0.6,8-0.8,11.9-1.8l11.8-2.6
		c62.8-14.7,118.3-57.7,150.1-114.1c16-28.2,26.3-59.6,30.1-91.9c3.8-32.2,1.1-65.3-7.9-96.5c-17.9-62.7-62.3-117.2-120-147.8
		c-28.8-15.4-60.8-24.9-93.3-27.6c-32.5-2.7-65.6,1-96.7,11.1c-31.1,10-60.1,26.5-84.7,47.8c-12.4,10.6-23.8,22.5-33.7,35.6
		c-9.9,13.1-18.2,27.2-25.4,41.7c-28.6,58.5-36.1,123.9-40.3,185.3l-1.2,11.1c-0.4,3.7-1.4,7.3-2.1,10.9l-2.3,10.8l-3.4,10.5
		c-1.9,7.1-5.4,13.5-8.2,20.2c-1.5,3.3-3.6,6.3-5.4,9.4l-2.8,4.7c-1,1.5-2.2,2.9-3.2,4.3c-8.3,11.8-18.8,21.9-30.7,30
		c-2.9,2.1-6.1,3.8-9.2,5.7c-3.2,1.7-6.4,3.3-9.7,4.8c-3.3,1.4-6.6,2.8-10,3.9c-1.4,0.5-2.8,0.9-4.3,1.3
		c-23.8-3.8-46.9-11.2-68.3-22.4c-52.8-27.4-93.8-76.8-110.6-134c-8.5-28.6-11.2-58.9-7.9-88.5c3.2-29.7,12.4-58.7,27-84.8
		c14.6-26.1,34.4-49.2,57.8-67.9c3-2.3,5.8-4.7,8.9-6.9l9.4-6.2c6.1-4.4,13-7.5,19.4-11.3c3.2-2,6.8-3.3,10.2-4.9
		c3.4-1.5,6.8-3.1,10.3-4.6l10.6-3.8c3.5-1.3,7.1-2.6,10.8-3.4c29-8.2,59.7-11.4,90.1-8.2c30.4,3.2,60.4,12.1,88.3,26.1
		c-25.8-17.6-55.7-29.6-87-35.3c-3.9-0.9-7.9-1.1-11.8-1.7c-3.9-0.4-7.9-1.1-11.9-1.3l-12-0.4l-6-0.2l-6,0.3l-12,0.6
		c-4,0.3-7.9,1-11.9,1.4c-4,0.6-8,0.8-11.9,1.8l-11.8,2.6C717,634,661.5,677,629.7,733.4 M847,1075.2c1.1-0.6,2.2-1.3,3.2-2
		c14-9.1,26.5-20.8,36.3-34.4c1.3-1.7,2.6-3.3,3.8-5l3.3-5.3c2.1-3.6,4.5-7.1,6.3-10.8c3.4-7.6,7.4-14.9,9.6-22.9l3.9-11.7l2.6-12
		c0.8-4,1.9-8,2.4-12l1.4-12.1c0.4-4,1-8.2,1.3-12l0.9-11.5c0.6-7.7,1.5-15.3,2.2-22.9c1.9-15.2,4-30.4,7.1-45.3
		c6.1-29.8,14.5-59.1,27.7-85.9c6.6-13.4,14.2-26.2,23.1-38c9-11.8,19.2-22.4,30.5-32.1c22.4-19.4,48.7-34.3,76.9-43.4
		c20.5-6.7,42-10.2,63.5-10.7c-1.1,0.6-2.2,1.3-3.2,2c-14,9.1-26.5,20.8-36.3,34.4c-1.2,1.7-2.6,3.3-3.8,5l-3.2,5.3
		c-2.1,3.6-4.5,7.1-6.3,10.8c-3.4,7.6-7.4,14.9-9.6,22.9l-3.9,11.8l-2.6,12c-0.8,4-1.9,8-2.4,12l-1.4,12.1c-0.4,4-1,8.2-1.3,12
		l-0.9,11.5c-0.6,7.7-1.5,15.3-2.2,22.9c-1.9,15.2-4,30.4-7.1,45.3c-6.1,29.8-14.5,59.1-27.7,85.9c-6.6,13.4-14.2,26.2-23.1,38
		c-9,11.8-19.2,22.4-30.5,32.1c-22.4,19.4-48.7,34.3-76.9,43.4C890.1,1071.2,868.6,1074.7,847,1075.2"/>
	<g>
		<path class="st1" d="M424.6,1251.6c-3.6-1.6-8.5-3.5-14.5-5.5c1.8-0.6,3.6-1.3,5.3-2.1c5.6-2.6,10.1-6.6,13.5-11.7
			c3.4-5.2,5.1-11.3,5.1-18.3c0-6.9-1.9-13.1-5.6-18.4c-3.6-5.3-8.6-9.3-14.7-12.2c-6-2.8-12.6-4.3-19.8-4.4h-49.9v6.9h2.9
			c2.3,0,3.9,0.6,5,1.7c1.1,1.2,1.7,2.7,1.7,4.6v120.5c0,1.9-0.6,3.4-1.7,4.6c-1.1,1.2-2.8,1.7-5,1.7h-2.9v6.9h48.3l1,0
			c16,0,28.8-3.4,38.2-10.1c9.8-7.1,14.8-17.6,14.8-31.3c0-8.7-2.2-15.8-6.4-21.1C435.8,1258.2,430.7,1254.2,424.6,1251.6z
			 M412.5,1233.2c-4.9,4-10.3,6-16.7,6c-4.7,0-9.3-1.2-13.5-3.5c-4.2-2.3-7.6-5.7-10.2-10.3c-2.6-4.6-3.9-10.2-3.9-16.8v-16.5
			c0-2.1,0.7-2.9,1.2-3.3c1.1-0.8,3-1.2,5.5-1.2h14.5c10,0,17.8,2.4,23.4,7.2c5.5,4.8,8.2,10.7,8.2,18.2c0,1.8-0.1,2.7-0.2,3.2
			l0,0.2C420,1223.7,417.3,1229.2,412.5,1233.2z M368.1,1234.9c1.2,1.5,2.6,2.9,4.1,4.2c4.3,3.6,9.2,6.2,14.6,7.6l8,3
			c8.8,3,15.8,5.9,20.8,8.4c4.7,2.4,8.6,5.7,11.8,9.9c3,4,4.6,9.5,4.6,16.2c0,21.1-13,31.9-39.6,32.9h-17.5c-2.5,0-4.4-0.4-5.5-1.2
			c-0.5-0.4-1.2-1.2-1.2-3.3V1234.9z"/>
		<path class="st1" d="M631.6,1317.5c-1.2-1-2.2-2.9-2.8-5.7l-29.2-132.5l-0.1-0.4h-22.6v6.9h2.9c1.6,0,2.9,0.3,3.9,0.9
			c0.7,0.4,1.3,0.9,1.8,1.4l-27.7,125.3c-0.5,2.2-1.3,3.8-2.2,4.4c-0.7,0.4-2.5,1.1-7,1.1h-2.9v6.9h29.5v-6.9h-2.9
			c-3.2,0-4.7-0.5-5.4-0.9c-0.5-0.3-0.7-0.5-0.7-1.2c0-0.7,0.1-0.9,0.1-0.9l12.9-57.8H602l12.8,57.4l0.1,0.2c0,0,0.1,0.2,0.1,0.9
			c0,0.9,0,2.3-4.5,2.3h-2.9v6.9h32.5v-6.9H637C634.6,1318.9,632.8,1318.4,631.6,1317.5z M600.1,1249.4h-19.3l9.6-43.8L600.1,1249.4
			z"/>
		<path class="st1" d="M821.8,1306.3c-1.5,3.9-3,6.8-4.4,8.8c-1.1,1.4-2.3,2-3.9,2h-40.9c-2.5,0-4.4-0.4-5.5-1.2
			c-0.5-0.4-1.2-1.2-1.2-3.3v-120.5c0-2,0.6-3.6,1.7-4.8c1.1-1.2,2.8-1.7,5-1.7h2.9v-6.7h-33.7v6.9h2.9c2.3,0,3.9,0.6,5,1.7
			c1.1,1.2,1.7,2.7,1.7,4.6v120.5c0,1.9-0.6,3.4-1.7,4.6c-1.1,1.2-2.8,1.7-5,1.7h-2.9v6.9h69.4c3.2,0,4.7,0.3,5.3,0.5l0.3,1.5h5.6
			l7.3-23.4h-7.2L821.8,1306.3z"/>
		<path class="st1" d="M1015.6,1317.5L1015.6,1317.5c-1.2-1-2.2-2.9-2.8-5.7l-29.2-132.5l-0.1-0.4h-22.6v6.9h2.9
			c1.6,0,2.9,0.3,3.9,0.9c0.7,0.4,1.3,0.9,1.8,1.4l-27.7,125.3c-0.5,2.3-1.3,3.8-2.2,4.4c-0.7,0.4-2.5,1.1-7,1.1h-2.9v6.9h29.5v-6.9
			h-2.9c-3.2,0-4.7-0.5-5.4-0.9c-0.5-0.3-0.7-0.5-0.7-1.2c0-0.7,0.1-0.9,0.1-0.9l12.9-57.8H986l12.8,57.4l0.1,0.2
			c0,0,0.1,0.2,0.1,0.9c0,0.9,0,2.3-4.5,2.3h-2.9v6.9h32.5v-6.9h-2.9C1018.6,1318.9,1016.8,1318.4,1015.6,1317.5z M984.1,1249.4
			h-19.3l9.6-43.8L984.1,1249.4z"/>
		<path class="st1" d="M1186.7,1185.8h2.9c2.3,0,3.9,0.6,5,1.7c1.1,1.2,1.7,2.7,1.7,4.6v85.1l-50.2-98.3h-20.3v6.9h2.9
			c2.3,0,3.9,0.6,5,1.7c1.1,1.2,1.7,2.7,1.7,4.6v120.5c0,1.9-0.6,3.4-1.7,4.6c-1.1,1.2-2.8,1.7-5,1.7h-2.9v6.9h28.1v-6.7h-2.9
			c-2.3,0-3.9-0.6-5-1.8c-1.2-1.3-1.7-2.8-1.7-4.7v-104l60.9,120.9v-137.3c0-2,0.6-3.6,1.7-4.8c1.1-1.2,2.8-1.7,5-1.7h2.9v-6.7
			h-28.1V1185.8z"/>
		<path class="st1" d="M1447.6,1300.4c-13.2,12.6-29.9,18.9-49.6,18.9c-2.3,0-4.1-0.1-5.5-0.2c-11.2-0.6-21.6-3.8-30.9-9.4
			c-9.3-5.6-16.8-13.1-22.2-22.3c-5.4-9.2-8.2-19.6-8.2-30.8c0-13.5,3.3-25.8,9.8-36.6c6.5-10.8,15.1-19.3,25.7-25.2
			c10.6-6,21.9-9,33.7-9c8.4,0,17,1.4,25.6,4.1c8.5,2.7,15.9,6.7,22,11.9l0.8,0.7h5v-23.6h-7.1v2.9c0,1.5-0.3,3.3-0.9,5.3
			c-0.1,0.3-0.2,0.6-0.3,0.8c-8.3-3.9-16.1-6.7-23.2-8.4c-7.6-1.8-16.1-2.7-25.3-2.7c-14.9,0-28.6,3.4-40.7,10
			c-12.1,6.7-21.7,15.9-28.6,27.4c-6.9,11.5-10.4,24.3-10.4,38.1c0,13.8,3.5,26.6,10.4,38.1c6.9,11.5,16.5,20.7,28.6,27.4
			c12.1,6.7,25.8,10,40.7,10c11.1,0,21.5-1.9,31.1-5.6c9.6-3.7,18.1-9,25.3-15.7l2.4-2.2l-6.4-5.8L1447.6,1300.4z"/>
		<path class="st1" d="M1648.7,1304.4l-0.7,1.9c-1.5,3.9-3,6.9-4.4,8.8c-1.1,1.4-2.3,2-3.9,2h-40.9c-2.5,0-4.4-0.4-5.5-1.2
			c-0.5-0.4-1.2-1.2-1.2-3.3v-59.1h27.3c1.3,0,2.2,0.5,3,1.7c1.1,1.7,2.2,4.7,3.2,8.7l0.5,2.3h7.5l-8.3-34.1h-7.5l0.9,3.7
			c0.7,3,1.1,5.4,1.1,7.1c0,1.9-0.4,1.9-1.3,1.9H1592v-52.7c0-2.1,0.7-2.9,1.2-3.3c1.1-0.8,3-1.2,5.5-1.2h36.9c1.6,0,2.8,0.6,3.9,2
			c1.4,1.9,2.9,4.9,4.4,8.8l0.7,1.9h7.2l-7.3-23.4h-5.6l-0.3,1.5c-0.6,0.2-2.2,0.5-5.3,0.5H1568v6.9h2.9c2.3,0,3.9,0.6,5,1.7
			c1.1,1.2,1.7,2.7,1.7,4.6v120.5c0,1.9-0.6,3.4-1.7,4.6c-1.1,1.2-2.8,1.7-5,1.7h-2.9v6.9h69.4c3.2,0,4.7,0.3,5.3,0.5l0.3,1.5h5.6
			l7.3-23.4H1648.7z"/>
	</g>
	<g>
		<path class="st1" d="M593.9,1387.1l-4.9-7c-0.6,0-1.1,0.1-1.4,0.1h-5.7v7h-3.3v-22.9h8.9c3,0,5.3,0.7,7,2.1
			c1.7,1.4,2.5,3.4,2.5,5.9c0,1.8-0.4,3.3-1.3,4.5c-0.9,1.2-2.1,2.1-3.7,2.7l5.4,7.7H593.9z M592.2,1376.1c1.1-0.9,1.6-2.2,1.6-3.8
			s-0.5-2.9-1.6-3.8c-1.1-0.9-2.7-1.3-4.7-1.3h-5.6v10.3h5.6C589.5,1377.4,591.1,1377,592.2,1376.1z"/>
		<path class="st1" d="M639.3,1384.3v2.8h-16.6v-22.9h16.1v2.8h-12.9v7h11.5v2.8h-11.5v7.4H639.3z"/>
		<path class="st1" d="M680.6,1375.6h3.1v8.9c-1.1,0.9-2.5,1.7-4,2.2c-1.5,0.5-3.1,0.8-4.7,0.8c-2.3,0-4.4-0.5-6.2-1.5
			c-1.9-1-3.3-2.4-4.4-4.2s-1.6-3.8-1.6-6c0-2.2,0.5-4.2,1.6-6c1.1-1.8,2.5-3.2,4.4-4.2c1.9-1,4-1.5,6.3-1.5c1.8,0,3.5,0.3,5,0.9
			c1.5,0.6,2.8,1.5,3.8,2.6l-2,2c-1.8-1.8-4-2.6-6.6-2.6c-1.7,0-3.3,0.4-4.7,1.1c-1.4,0.8-2.5,1.8-3.3,3.1c-0.8,1.3-1.2,2.8-1.2,4.5
			c0,1.7,0.4,3.2,1.2,4.5c0.8,1.3,1.9,2.4,3.3,3.2c1.4,0.8,2.9,1.1,4.7,1.1c2,0,3.8-0.5,5.4-1.5V1375.6z"/>
		<path class="st1" d="M726.8,1384.3v2.8h-16.6v-22.9h16.1v2.8h-12.9v7H725v2.8h-11.5v7.4H726.8z"/>
		<path class="st1" d="M772.1,1364.3v22.9h-2.7l-13.7-17.1v17.1h-3.3v-22.9h2.7l13.7,17.1v-17.1H772.1z"/>
		<path class="st1" d="M815.8,1384.3v2.8h-16.6v-22.9h16.1v2.8h-12.9v7H814v2.8h-11.5v7.4H815.8z"/>
		<path class="st1" d="M856.7,1387.1l-4.9-7c-0.6,0-1.1,0.1-1.4,0.1h-5.7v7h-3.3v-22.9h8.9c3,0,5.3,0.7,7,2.1
			c1.7,1.4,2.5,3.4,2.5,5.9c0,1.8-0.4,3.3-1.3,4.5c-0.9,1.2-2.1,2.1-3.7,2.7l5.4,7.7H856.7z M854.9,1376.1c1.1-0.9,1.6-2.2,1.6-3.8
			s-0.5-2.9-1.6-3.8c-1.1-0.9-2.7-1.3-4.7-1.3h-5.6v10.3h5.6C852.3,1377.4,853.9,1377,854.9,1376.1z"/>
		<path class="st1" d="M900,1381.4h-12.2l-2.5,5.7h-3.4l10.4-22.9h3.2l10.4,22.9h-3.4L900,1381.4z M898.8,1378.8l-4.9-11.2
			l-4.9,11.2H898.8z"/>
		<path class="st1" d="M933,1367.1h-7.8v-2.8h18.9v2.8h-7.8v20H933V1367.1z"/>
		<path class="st1" d="M967.9,1364.3h3.3v22.9h-3.3V1364.3z"/>
		<path class="st1" d="M1017.9,1364.3l-10,22.9h-3.2l-10.1-22.9h3.5l8.2,18.8l8.3-18.8H1017.9z"/>
		<path class="st1" d="M1057.7,1384.3v2.8h-16.6v-22.9h16.1v2.8h-12.9v7h11.5v2.8h-11.5v7.4H1057.7z"/>
		<path class="st1" d="M1133.6,1387.1l0-16.7l-8.3,13.9h-1.5l-8.3-13.8v16.6h-3.1v-22.9h2.7l9.5,16.1l9.4-16.1h2.7l0,22.9H1133.6z"
			/>
		<path class="st1" d="M1180.4,1384.3v2.8h-16.6v-22.9h16.1v2.8h-12.9v7h11.5v2.8h-11.5v7.4H1180.4z"/>
		<path class="st1" d="M1206,1364.3h9.6c2.4,0,4.6,0.5,6.4,1.4c1.9,1,3.3,2.3,4.4,4c1,1.7,1.6,3.7,1.6,6c0,2.2-0.5,4.2-1.6,6
			c-1,1.7-2.5,3.1-4.4,4c-1.9,1-4,1.4-6.4,1.4h-9.6V1364.3z M1215.4,1384.3c1.9,0,3.5-0.4,4.9-1.1c1.4-0.7,2.5-1.7,3.3-3
			c0.8-1.3,1.1-2.8,1.1-4.5c0-1.7-0.4-3.2-1.1-4.5c-0.8-1.3-1.8-2.3-3.3-3c-1.4-0.7-3-1.1-4.9-1.1h-6.2v17.2H1215.4z"/>
		<path class="st1" d="M1253.2,1364.3h3.3v22.9h-3.3V1364.3z"/>
		<path class="st1" d="M1287.7,1385.9c-1.8-1-3.3-2.4-4.3-4.2c-1-1.8-1.6-3.8-1.6-6c0-2.2,0.5-4.2,1.6-6c1-1.8,2.5-3.2,4.3-4.2
			c1.9-1,3.9-1.5,6.2-1.5c1.8,0,3.4,0.3,4.9,0.9c1.5,0.6,2.7,1.5,3.8,2.7l-2.1,2.1c-1.7-1.8-3.9-2.7-6.4-2.7c-1.7,0-3.2,0.4-4.6,1.1
			c-1.4,0.8-2.4,1.8-3.2,3.2c-0.8,1.3-1.2,2.8-1.2,4.5c0,1.7,0.4,3.2,1.2,4.5s1.8,2.4,3.2,3.2c1.4,0.8,2.9,1.1,4.6,1.1
			c2.5,0,4.7-0.9,6.4-2.7l2.1,2.1c-1,1.2-2.3,2.1-3.8,2.7c-1.5,0.6-3.1,0.9-4.9,0.9C1291.6,1387.4,1289.5,1386.9,1287.7,1385.9z"/>
		<path class="st1" d="M1327.5,1364.3h3.3v22.9h-3.3V1364.3z"/>
		<path class="st1" d="M1377.6,1364.3v22.9h-2.7l-13.7-17.1v17.1h-3.3v-22.9h2.7l13.7,17.1v-17.1H1377.6z"/>
		<path class="st1" d="M1421.4,1384.3v2.8h-16.6v-22.9h16.1v2.8H1408v7h11.5v2.8H1408v7.4H1421.4z"/>
	</g>
</g>
</svg>
